<svg width="18" height="11" viewBox="0 0 18 11" fill="none" xmlns="http://www.w3.org/2000/svg">
<path d="M13.5167 3.33333L10.1751 0H6.50008V1.66667H9.49175L11.1584 3.33333H4.41675C2.33341 3.33333 0.666748 5 0.666748 7.08333C0.666748 9.16667 2.33341 10.8333 4.41675 10.8333C6.26675 10.8333 7.80008 9.48333 8.10008 7.725L9.86675 6.66667C9.83342 6.80833 9.83342 6.94167 9.83342 7.08333C9.83342 9.16667 11.5001 10.8333 13.5834 10.8333C15.6667 10.8333 17.3334 9.16667 17.3334 7.08333C17.3334 5 15.6667 3.33333 13.5834 3.33333H13.5167ZM6.36675 7.71667C6.08342 8.55833 5.31675 9.16667 4.39175 9.16667C3.83921 9.16667 3.30931 8.94717 2.91861 8.55647C2.52791 8.16577 2.30841 7.63587 2.30841 7.08333C2.30841 6.5308 2.52791 6.0009 2.91861 5.61019C3.30931 5.21949 3.83921 5 4.39175 5C5.32508 5 6.08342 5.61667 6.36675 6.45833H4.00008V7.70833L6.36675 7.71667ZM13.5584 9.16667C13.0059 9.16667 12.476 8.94717 12.0853 8.55647C11.6946 8.16577 11.4751 7.63587 11.4751 7.08333C11.4751 6.5308 11.6946 6.0009 12.0853 5.61019C12.476 5.21949 13.0059 5 13.5584 5C14.1109 5 14.6409 5.21949 15.0316 5.61019C15.4223 6.0009 15.6417 6.5308 15.6417 7.08333C15.6417 7.63587 15.4223 8.16577 15.0316 8.55647C14.6409 8.94717 14.1109 9.16667 13.5584 9.16667Z" fill="#FCFCFC"/>
</svg>
