<svg width="12" height="11" viewBox="0 0 12 11" fill="none" xmlns="http://www.w3.org/2000/svg">
<path d="M10.6133 1.00634C10.48 0.613008 10.1067 0.333008 9.66667 0.333008H2.33333C1.89333 0.333008 1.52667 0.613008 1.38667 1.00634L0 4.99967V10.333C0 10.6997 0.3 10.9997 0.666667 10.9997H1.33333C1.7 10.9997 2 10.6997 2 10.333V9.66634H10V10.333C10 10.6997 10.3 10.9997 10.6667 10.9997H11.3333C11.7 10.9997 12 10.6997 12 10.333V4.99967L10.6133 1.00634ZM2.33333 7.66634C1.78 7.66634 1.33333 7.21967 1.33333 6.66634C1.33333 6.11301 1.78 5.66634 2.33333 5.66634C2.88667 5.66634 3.33333 6.11301 3.33333 6.66634C3.33333 7.21967 2.88667 7.66634 2.33333 7.66634ZM9.66667 7.66634C9.11333 7.66634 8.66667 7.21967 8.66667 6.66634C8.66667 6.11301 9.11333 5.66634 9.66667 5.66634C10.22 5.66634 10.6667 6.11301 10.6667 6.66634C10.6667 7.21967 10.22 7.66634 9.66667 7.66634ZM1.33333 4.33301L2.33333 1.33301H9.66667L10.6667 4.33301H1.33333Z" fill="#0080F6"/>
</svg>
