<svg width="21" height="20" viewBox="0 0 21 20" fill="none" xmlns="http://www.w3.org/2000/svg">
<path d="M15.4895 17.5C14.7787 17.5 14.0839 17.2892 13.4929 16.8943C12.9019 16.4995 12.4413 15.9382 12.1693 15.2815C11.8973 14.6248 11.8261 13.9023 11.9648 13.2051C12.1035 12.508 12.4457 11.8677 12.9483 11.3651C13.4509 10.8625 14.0913 10.5202 14.7884 10.3816C15.4855 10.2429 16.2081 10.3141 16.8648 10.5861C17.5214 10.8581 18.0827 11.3187 18.4776 11.9097C18.8725 12.5007 19.0833 13.1955 19.0833 13.9063C19.0822 14.8591 18.7033 15.7725 18.0295 16.4463C17.3558 17.12 16.4423 17.499 15.4895 17.5ZM15.4895 11.5625C15.026 11.5625 14.5728 11.7 14.1874 11.9575C13.802 12.215 13.5016 12.5811 13.3242 13.0093C13.1468 13.4376 13.1004 13.9089 13.1908 14.3635C13.2812 14.8181 13.5044 15.2358 13.8322 15.5635C14.16 15.8913 14.5776 16.1145 15.0323 16.205C15.4869 16.2954 15.9582 16.249 16.3864 16.0716C16.8147 15.8942 17.1807 15.5938 17.4383 15.2084C17.6958 14.8229 17.8333 14.3698 17.8333 13.9063C17.8325 13.2849 17.5854 12.6892 17.146 12.2498C16.7066 11.8104 16.1109 11.5632 15.4895 11.5625Z" fill="#FCFCFC"/>
<path d="M5.177 17.5C4.46623 17.5 3.77141 17.2892 3.18042 16.8943C2.58943 16.4995 2.12881 15.9382 1.85681 15.2815C1.58481 14.6248 1.51364 13.9023 1.65231 13.2051C1.79097 12.508 2.13324 11.8677 2.63584 11.3651C3.13843 10.8625 3.77878 10.5202 4.4759 10.3816C5.17302 10.2429 5.8956 10.3141 6.55227 10.5861C7.20894 10.8581 7.77021 11.3187 8.1651 11.9097C8.55998 12.5007 8.77075 13.1955 8.77075 13.9063C8.76972 14.8591 8.39076 15.7725 7.71703 16.4463C7.04329 17.12 6.12981 17.499 5.177 17.5ZM5.177 11.5625C4.71345 11.5625 4.26031 11.7 3.87489 11.9575C3.48946 12.215 3.18905 12.5811 3.01166 13.0093C2.83427 13.4376 2.78785 13.9089 2.87829 14.3635C2.96872 14.8181 3.19194 15.2358 3.51972 15.5635C3.8475 15.8913 4.26512 16.1145 4.71976 16.205C5.1744 16.2954 5.64565 16.249 6.07392 16.0716C6.50218 15.8942 6.86823 15.5938 7.12576 15.2084C7.3833 14.8229 7.52075 14.3698 7.52075 13.9063C7.52003 13.2849 7.27287 12.6892 6.83349 12.2498C6.3941 11.8104 5.79838 11.5632 5.177 11.5625Z" fill="#FCFCFC"/>
<path d="M12.8333 5.00004C12.9979 5.00061 13.161 4.96854 13.3132 4.90568C13.4654 4.84282 13.6036 4.75042 13.7198 4.63382C13.836 4.51722 13.928 4.37873 13.9904 4.22636C14.0528 4.074 14.0843 3.91077 14.0833 3.74613C14.0851 3.58232 14.0542 3.41978 13.9925 3.26803C13.9308 3.11628 13.8394 2.97836 13.7237 2.86234C13.6081 2.74631 13.4704 2.65451 13.3189 2.59231C13.1673 2.5301 13.0049 2.49873 12.8411 2.50004C12.6769 2.49953 12.5143 2.53135 12.3624 2.5937C12.2106 2.65604 12.0725 2.74768 11.956 2.86339C11.8396 2.9791 11.7471 3.11662 11.6838 3.26808C11.6205 3.41954 11.5877 3.58198 11.5872 3.74613C11.5867 3.91029 11.6185 4.07293 11.6808 4.22479C11.7432 4.37664 11.8348 4.51473 11.9505 4.63116C12.0662 4.7476 12.2037 4.84011 12.3552 4.9034C12.5067 4.96669 12.6691 4.99953 12.8333 5.00004Z" fill="#FCFCFC"/>
<path d="M14.6907 7.50023H12.9813C12.9533 7.50024 12.9257 7.4927 12.9016 7.4784C12.8775 7.46411 12.8576 7.44358 12.8442 7.41898L11.6043 5.14672C11.517 4.97785 11.3911 4.83193 11.2369 4.72076C11.0826 4.6096 10.9044 4.53631 10.7166 4.50683C10.5287 4.47735 10.3366 4.49251 10.1557 4.55109C9.97487 4.60966 9.81033 4.71 9.67544 4.84398L6.94653 7.59398C6.71727 7.82798 6.58714 8.14141 6.58325 8.46898C6.58325 9.14867 7.07544 9.39086 7.30591 9.52758C8.41919 10.169 9.20317 10.6381 9.63325 10.8987C9.65611 10.9126 9.67502 10.9321 9.68815 10.9555C9.70128 10.9788 9.7082 11.0051 9.70825 11.0319V13.7319C9.70825 14.0682 9.96684 14.3569 10.3032 14.3737C10.3876 14.3777 10.472 14.3646 10.5512 14.3351C10.6305 14.3057 10.7029 14.2604 10.7641 14.2021C10.8254 14.1439 10.8741 14.0738 10.9075 13.9961C10.9409 13.9184 10.9581 13.8348 10.9582 13.7502V10.3909C10.9583 10.2916 10.9347 10.1938 10.8895 10.1055C10.8443 10.0172 10.7786 9.94096 10.6981 9.88304L9.25278 8.84359C9.23464 8.83061 9.21949 8.81389 9.20834 8.79457C9.1972 8.77524 9.19032 8.75376 9.18818 8.73155C9.18603 8.70935 9.18866 8.68694 9.1959 8.66584C9.20314 8.64474 9.2148 8.62543 9.23012 8.60922L10.8707 6.85961C10.8876 6.84161 10.9084 6.82784 10.9316 6.81943C10.9547 6.81102 10.9795 6.8082 11.004 6.81121C11.0284 6.81422 11.0518 6.82297 11.0723 6.83674C11.0927 6.85051 11.1096 6.86892 11.1215 6.89047L11.9739 8.42875C12.028 8.52626 12.1073 8.6075 12.2035 8.66403C12.2997 8.72056 12.4092 8.75032 12.5207 8.75023H14.7082C14.7929 8.75033 14.8767 8.73322 14.9546 8.69995C15.0324 8.66668 15.1027 8.61793 15.1612 8.55667C15.2196 8.49541 15.265 8.42291 15.2946 8.34358C15.3242 8.26424 15.3373 8.17972 15.3332 8.09515C15.3168 7.75882 15.027 7.50023 14.6907 7.50023Z" fill="#FCFCFC"/>
</svg>
