<svg width="17" height="17" viewBox="0 0 17 17" fill="none" xmlns="http://www.w3.org/2000/svg">
<path d="M13.2108 2.01828L13.6428 4.75245L16.1291 6.02036L14.8753 8.49953L16.1362 10.9787L13.6287 12.2466L13.1966 14.9808L10.4412 14.5487L8.47908 16.5037L6.50992 14.5204L3.77575 14.9737L3.33659 12.2183L0.864502 10.9574L2.12534 8.47828L0.871585 6.02036L3.35783 4.73828L3.78992 2.02536L6.53117 2.4787L8.50033 0.488281L10.4624 2.45036L13.2108 2.01828ZM6.7295 4.95786C6.44771 4.95786 6.17746 5.06981 5.9782 5.26906C5.77894 5.46832 5.667 5.73857 5.667 6.02036C5.667 6.30216 5.77894 6.57241 5.9782 6.77167C6.17746 6.97092 6.44771 7.08286 6.7295 7.08286C7.01129 7.08286 7.28154 6.97092 7.4808 6.77167C7.68006 6.57241 7.792 6.30216 7.792 6.02036C7.792 5.73857 7.68006 5.46832 7.4808 5.26906C7.28154 5.06981 7.01129 4.95786 6.7295 4.95786ZM10.2712 9.9162C9.98938 9.9162 9.71912 10.0281 9.51987 10.2274C9.32061 10.4267 9.20867 10.6969 9.20867 10.9787C9.20867 11.2605 9.32061 11.5307 9.51987 11.73C9.71912 11.9293 9.98938 12.0412 10.2712 12.0412C10.553 12.0412 10.8232 11.9293 11.0225 11.73C11.2217 11.5307 11.3337 11.2605 11.3337 10.9787C11.3337 10.6969 11.2217 10.4267 11.0225 10.2274C10.8232 10.0281 10.553 9.9162 10.2712 9.9162ZM5.95742 12.0412L12.042 5.95661L11.0433 4.95786L4.95867 11.0424L5.95742 12.0412Z" fill="#00B2EB"/>
</svg>
