<svg width="14" height="20" viewBox="0 0 14 20" fill="none" xmlns="http://www.w3.org/2000/svg">
<path d="M5.22659 2.03626C5.22659 0.920502 6.10659 0 7.19992 0C8.26659 0 9.11992 0.920502 9.11992 2.03626C9.11992 3.17992 8.26659 4.07252 7.19992 4.07252C6.10659 4.07252 5.22659 3.17992 5.22659 2.03626ZM7.33325 20H9.06659C9.06659 20 9.14658 14.8396 9.01325 14.2259C8.90659 13.6123 7.75992 12.3291 7.70658 11.8271C7.65325 11.2971 8.15992 9.12134 8.15992 9.12134C8.15992 9.12134 9.30659 10.2092 9.67992 10.4045C10.0533 10.5997 12.9866 11.1018 12.9866 11.1018L13.3333 9.53975C13.3333 9.53975 10.5333 8.89819 10.1333 8.56346C9.73325 8.25663 8.66658 5.55091 7.86659 5.21618C7.33325 4.96513 5.89325 5.07671 5.17325 5.07671C4.42659 5.07671 1.97325 6.55509 1.73325 6.88982C1.46659 7.19665 -8.2016e-05 10.2092 -8.2016e-05 10.2092L1.33325 10.9902L2.39992 8.59135C2.39992 8.59135 3.22659 7.86611 3.54659 7.75453C3.89325 7.64296 4.34659 7.50349 4.42659 7.81032C4.53325 8.08926 3.81325 10.3766 3.62659 11.0181C3.46659 11.6876 2.58659 14.728 2.26659 15.3696C1.94658 16.0112 0.0532513 18.8563 0.0532513 18.8563L1.67992 19.9721C1.67992 19.9721 3.99992 16.6806 4.29325 16.2064C4.61325 15.7322 5.51992 13.1939 5.51992 13.1939C5.51992 13.1939 7.06659 15.1743 7.19992 15.788C7.30659 16.3459 7.33325 20 7.33325 20Z" fill="#FCFCFC"/>
</svg>
