<svg width="16" height="10" viewBox="0 0 16 10" fill="none" xmlns="http://www.w3.org/2000/svg">
<path d="M1.33333 1.66667C1.79357 1.66667 2.16667 1.29357 2.16667 0.833333C2.16667 0.373096 1.79357 0 1.33333 0C0.873096 0 0.5 0.373096 0.5 0.833333C0.5 1.29357 0.873096 1.66667 1.33333 1.66667Z" fill="#666666"/>
<path d="M1.33333 5.83366C1.79357 5.83366 2.16667 5.46056 2.16667 5.00033C2.16667 4.54009 1.79357 4.16699 1.33333 4.16699C0.873096 4.16699 0.5 4.54009 0.5 5.00033C0.5 5.46056 0.873096 5.83366 1.33333 5.83366Z" fill="#666666"/>
<path d="M1.33333 9.99967C1.79357 9.99967 2.16667 9.62658 2.16667 9.16634C2.16667 8.7061 1.79357 8.33301 1.33333 8.33301C0.873096 8.33301 0.5 8.7061 0.5 9.16634C0.5 9.62658 0.873096 9.99967 1.33333 9.99967Z" fill="#666666"/>
<path d="M14.7166 4.16699H4.61659C4.18396 4.16699 3.83325 4.5177 3.83325 4.95033V5.05033C3.83325 5.48295 4.18396 5.83366 4.61659 5.83366H14.7166C15.1492 5.83366 15.4999 5.48295 15.4999 5.05033V4.95033C15.4999 4.5177 15.1492 4.16699 14.7166 4.16699Z" fill="#666666"/>
<path d="M14.7166 8.33301H4.61659C4.18396 8.33301 3.83325 8.68372 3.83325 9.11634V9.21634C3.83325 9.64896 4.18396 9.99967 4.61659 9.99967H14.7166C15.1492 9.99967 15.4999 9.64896 15.4999 9.21634V9.11634C15.4999 8.68372 15.1492 8.33301 14.7166 8.33301Z" fill="#666666"/>
<path d="M14.7166 0H4.61659C4.18396 0 3.83325 0.35071 3.83325 0.783334V0.883333C3.83325 1.31596 4.18396 1.66667 4.61659 1.66667H14.7166C15.1492 1.66667 15.4999 1.31596 15.4999 0.883333V0.783334C15.4999 0.35071 15.1492 0 14.7166 0Z" fill="#666666"/>
</svg>
