<svg width="17" height="17" viewBox="0 0 17 17" fill="none" xmlns="http://www.w3.org/2000/svg">
<path d="M0.721029 0.0513753L16.076 7.61737C16.1598 7.65864 16.2303 7.72252 16.2796 7.80178C16.3289 7.88104 16.355 7.97253 16.355 8.06588C16.355 8.15922 16.3289 8.25071 16.2796 8.32997C16.2303 8.40923 16.1598 8.47311 16.076 8.51437L0.720029 16.0804C0.634 16.1226 0.537638 16.1393 0.442419 16.1283C0.347199 16.1174 0.257135 16.0793 0.182953 16.0186C0.10877 15.9579 0.0535965 15.8771 0.0240021 15.786C-0.00559231 15.6948 -0.00835991 15.5971 0.0160287 15.5044L1.53703 9.75937C1.56168 9.66641 1.61263 9.58253 1.68375 9.5178C1.75488 9.45306 1.84316 9.4102 1.93803 9.39437L8.81903 8.24737C8.86003 8.24058 8.89869 8.22368 8.93152 8.19819C8.96435 8.17269 8.9903 8.13942 9.00703 8.10137L9.02503 8.04138C9.03437 7.98576 9.02463 7.92863 8.9974 7.87925C8.97017 7.82987 8.92704 7.79115 8.87503 7.76938L8.81903 7.75338L1.90003 6.60038C1.80535 6.58437 1.71727 6.54144 1.64634 6.47671C1.57541 6.41198 1.52461 6.3282 1.50003 6.23537L0.0160287 0.628375C-0.0086136 0.535615 -0.00603746 0.437722 0.0234497 0.346386C0.0529368 0.25505 0.108089 0.174131 0.18232 0.113291C0.256551 0.0524512 0.346724 0.0142615 0.442072 0.00328244C0.537419 -0.00769663 0.633913 0.00899896 0.720029 0.0513753H0.721029Z" fill="#666666"/>
</svg>
