<svg width="79" height="28" viewBox="0 0 79 28" fill="none" xmlns="http://www.w3.org/2000/svg">
<rect width="79" height="28" fill="#0080F6"/>
<path d="M17.8959 8.2497C17.8643 8.17602 17.8097 8.11283 17.7391 8.06832C17.6685 8.0238 17.5851 8 17.4998 8C17.4144 8 17.3311 8.0238 17.2605 8.06832C17.1898 8.11283 17.1352 8.17602 17.1037 8.2497L12.2805 19.4556C12.2484 19.5302 12.2414 19.6121 12.2606 19.6905C12.2797 19.7688 12.3241 19.8399 12.3877 19.8943C12.4513 19.9488 12.5313 19.9839 12.6169 19.9951C12.7025 20.0063 12.7898 19.993 12.8671 19.957L17.4998 17.8044L22.1318 19.9576C22.2092 19.9939 22.2967 20.0073 22.3825 19.9962C22.4684 19.9851 22.5485 19.9499 22.6123 19.8954C22.6761 19.8409 22.7205 19.7695 22.7396 19.691C22.7586 19.6124 22.7515 19.5303 22.719 19.4556L17.8959 8.2497Z" fill="#FCFCFC"/>
<path d="M34.2539 14.1973C33.2891 13.9199 32.5859 13.5801 32.1445 13.1777C31.707 12.7715 31.4883 12.2715 31.4883 11.6777C31.4883 11.0059 31.7559 10.4512 32.291 10.0137C32.8301 9.57227 33.5293 9.35156 34.3887 9.35156C34.9746 9.35156 35.4961 9.46484 35.9531 9.69141C36.4141 9.91797 36.7695 10.2305 37.0195 10.6289C37.2734 11.0273 37.4004 11.4629 37.4004 11.9355H36.2695C36.2695 11.4199 36.1055 11.0156 35.7773 10.7227C35.4492 10.4258 34.9863 10.2773 34.3887 10.2773C33.834 10.2773 33.4004 10.4004 33.0879 10.6465C32.7793 10.8887 32.625 11.2266 32.625 11.6602C32.625 12.0078 32.7715 12.3027 33.0645 12.5449C33.3613 12.7832 33.8633 13.002 34.5703 13.2012C35.2812 13.4004 35.8359 13.6211 36.2344 13.8633C36.6367 14.1016 36.9336 14.3809 37.125 14.7012C37.3203 15.0215 37.418 15.3984 37.418 15.832C37.418 16.5234 37.1484 17.0781 36.6094 17.4961C36.0703 17.9102 35.3496 18.1172 34.4473 18.1172C33.8613 18.1172 33.3145 18.0059 32.8066 17.7832C32.2988 17.5566 31.9062 17.248 31.6289 16.8574C31.3555 16.4668 31.2188 16.0234 31.2188 15.5273H32.3496C32.3496 16.043 32.5391 16.4512 32.918 16.752C33.3008 17.0488 33.8105 17.1973 34.4473 17.1973C35.041 17.1973 35.4961 17.0762 35.8125 16.834C36.1289 16.5918 36.2871 16.2617 36.2871 15.8438C36.2871 15.4258 36.1406 15.1035 35.8477 14.877C35.5547 14.6465 35.0234 14.4199 34.2539 14.1973ZM44.7598 10.3945H42.0176V18H40.8984V10.3945H38.1621V9.46875H44.7598V10.3945ZM50.2676 15.7734H46.6934L45.8906 18H44.7305L47.9883 9.46875H48.9727L52.2363 18H51.082L50.2676 15.7734ZM47.0332 14.8477H49.9336L48.4805 10.8574L47.0332 14.8477ZM56.5137 14.5488H54.5098V18H53.3789V9.46875H56.2031C57.1641 9.46875 57.9023 9.6875 58.418 10.125C58.9375 10.5625 59.1973 11.1992 59.1973 12.0352C59.1973 12.5664 59.0527 13.0293 58.7637 13.4238C58.4785 13.8184 58.0801 14.1133 57.5684 14.3086L59.5723 17.9297V18H58.3652L56.5137 14.5488ZM54.5098 13.6289H56.2383C56.7969 13.6289 57.2402 13.4844 57.5684 13.1953C57.9004 12.9062 58.0664 12.5195 58.0664 12.0352C58.0664 11.5078 57.9082 11.1035 57.5918 10.8223C57.2793 10.541 56.8262 10.3984 56.2324 10.3945H54.5098V13.6289ZM66.2051 10.3945H63.4629V18H62.3438V10.3945H59.6074V9.46875H66.2051V10.3945Z" fill="#FCFCFC"/>
</svg>
