<svg width="14" height="17" viewBox="0 0 14 17" fill="none" xmlns="http://www.w3.org/2000/svg">
<path d="M6.99992 0.666992C3.66658 0.666992 0.333252 1.08366 0.333252 4.00033V11.917C0.333252 12.6905 0.640543 13.4324 1.18752 13.9794C1.7345 14.5264 2.47637 14.8337 3.24992 14.8337L1.99992 16.0837V16.5003H3.85825L5.52492 14.8337H8.66658L10.3333 16.5003H11.9999V16.0837L10.7499 14.8337C11.5235 14.8337 12.2653 14.5264 12.8123 13.9794C13.3593 13.4324 13.6666 12.6905 13.6666 11.917V4.00033C13.6666 1.08366 10.6833 0.666992 6.99992 0.666992ZM3.24992 13.167C2.9184 13.167 2.60046 13.0353 2.36603 12.8009C2.13161 12.5665 1.99992 12.2485 1.99992 11.917C1.99992 11.5855 2.13161 11.2675 2.36603 11.0331C2.60046 10.7987 2.9184 10.667 3.24992 10.667C3.58144 10.667 3.89938 10.7987 4.1338 11.0331C4.36822 11.2675 4.49992 11.5855 4.49992 11.917C4.49992 12.2485 4.36822 12.5665 4.1338 12.8009C3.89938 13.0353 3.58144 13.167 3.24992 13.167ZM6.16658 7.33366H1.99992V4.00033H6.16658V7.33366ZM7.83325 7.33366V4.00033H11.9999V7.33366H7.83325ZM10.7499 13.167C10.4184 13.167 10.1005 13.0353 9.86603 12.8009C9.63161 12.5665 9.49992 12.2485 9.49992 11.917C9.49992 11.5855 9.63161 11.2675 9.86603 11.0331C10.1005 10.7987 10.4184 10.667 10.7499 10.667C11.0814 10.667 11.3994 10.7987 11.6338 11.0331C11.8682 11.2675 11.9999 11.5855 11.9999 11.917C11.9999 12.2485 11.8682 12.5665 11.6338 12.8009C11.3994 13.0353 11.0814 13.167 10.7499 13.167Z" fill="#FCFCFC"/>
</svg>
